# xmcd
#
# Track frame offsets:
#	150
#	12737
#	29672
#	48162
#	65790
#	85422
#	106280
#	119630
#
# Disc length: 1917 seconds
#
# Revision: 1
# Processed by: cddbd v1.5.1PL0 Copyright (c) Steve Scherf et al.
# Submitted via: CDex 1.50Beta5
#
DISCID=73077b08
DTITLE=ブリジット・ウィルソン - 二人だけのデート
DYEAR=1994
DGENRE=Pop
TTITLE0=二人だけのデート
TTITLE1=ロミオ&ジュリエット
TTITLE2=せつない想い
TTITLE3=ラブ・インサイド
TTITLE4=トゥゲザー
TTITLE5=あなたとならば
TTITLE6=ダ・ドゥ・ロン・ロン
TTITLE7=愛を信じて…
EXTD=
EXTT0=
EXTT1=
EXTT2=
EXTT3=
EXTT4=
EXTT5=
EXTT6=
EXTT7=
PLAYORDER=
